<svg aria-roledescription="er" role="graphics-document document" viewBox="0 0 282.96917724609375 627" height="627" xmlns="http://www.w3.org/2000/svg" width="282.96917724609375" id="d_erd_iam_mmd"><style>#d_erd_iam_mmd{font-family:Arial,Helvetica,sans-serif;font-size:16px;fill:#000000;}#d_erd_iam_mmd .error-icon{fill:#552222;}#d_erd_iam_mmd .error-text{fill:#552222;stroke:#552222;}#d_erd_iam_mmd .edge-thickness-normal{stroke-width:2px;}#d_erd_iam_mmd .edge-thickness-thick{stroke-width:3.5px;}#d_erd_iam_mmd .edge-pattern-solid{stroke-dasharray:0;}#d_erd_iam_mmd .edge-pattern-dashed{stroke-dasharray:3;}#d_erd_iam_mmd .edge-pattern-dotted{stroke-dasharray:2;}#d_erd_iam_mmd .marker{fill:#666;stroke:#666;}#d_erd_iam_mmd .marker.cross{stroke:#666;}#d_erd_iam_mmd svg{font-family:Arial,Helvetica,sans-serif;font-size:16px;}#d_erd_iam_mmd .entityBox{fill:#eee;stroke:#999;}#d_erd_iam_mmd .attributeBoxOdd{fill:#ffffff;stroke:#999;}#d_erd_iam_mmd .attributeBoxEven{fill:#f2f2f2;stroke:#999;}#d_erd_iam_mmd .relationshipLabelBox{fill:hsl(-160, 0%, 93.3333333333%);opacity:0.7;background-color:hsl(-160, 0%, 93.3333333333%);}#d_erd_iam_mmd .relationshipLabelBox rect{opacity:0.5;}#d_erd_iam_mmd .relationshipLine{stroke:#666;}#d_erd_iam_mmd .entityTitleText{text-anchor:middle;font-size:18px;fill:#000000;}#d_erd_iam_mmd #MD_PARENT_START{fill:#f5f5f5!important;stroke:#666!important;stroke-width:1;}#d_erd_iam_mmd #MD_PARENT_END{fill:#f5f5f5!important;stroke:#666!important;stroke-width:1;}#d_erd_iam_mmd :root{--mermaid-font-family:"trebuchet ms",verdana,arial,sans-serif;}</style><rect data-bg="white" x="0" y="0" width="282.96917724609375" height="627" fill="#FFFFFF"/><g></g><defs><marker orient="auto" markerHeight="240" markerWidth="190" refY="7" refX="0" id="MD_PARENT_START"><path d="M 18,7 L9,13 L1,7 L9,1 Z"></path></marker></defs><defs><marker orient="auto" markerHeight="28" markerWidth="20" refY="7" refX="19" id="MD_PARENT_END"><path d="M 18,7 L9,13 L1,7 L9,1 Z"></path></marker></defs><defs><marker orient="auto" markerHeight="18" markerWidth="18" refY="9" refX="0" id="ONLY_ONE_START"><path d="M9,0 L9,18 M15,0 L15,18" fill="none" stroke="gray"></path></marker></defs><defs><marker orient="auto" markerHeight="18" markerWidth="18" refY="9" refX="18" id="ONLY_ONE_END"><path d="M3,0 L3,18 M9,0 L9,18" fill="none" stroke="gray"></path></marker></defs><defs><marker orient="auto" markerHeight="18" markerWidth="30" refY="9" refX="0" id="ZERO_OR_ONE_START"><circle r="6" cy="9" cx="21" fill="white" stroke="gray"></circle><path d="M9,0 L9,18" fill="none" stroke="gray"></path></marker></defs><defs><marker orient="auto" markerHeight="18" markerWidth="30" refY="9" refX="30" id="ZERO_OR_ONE_END"><circle r="6" cy="9" cx="9" fill="white" stroke="gray"></circle><path d="M21,0 L21,18" fill="none" stroke="gray"></path></marker></defs><defs><marker orient="auto" markerHeight="36" markerWidth="45" refY="18" refX="18" id="ONE_OR_MORE_START"><path d="M0,18 Q 18,0 36,18 Q 18,36 0,18 M42,9 L42,27" fill="none" stroke="gray"></path></marker></defs><defs><marker orient="auto" markerHeight="36" markerWidth="45" refY="18" refX="27" id="ONE_OR_MORE_END"><path d="M3,9 L3,27 M9,18 Q27,0 45,18 Q27,36 9,18" fill="none" stroke="gray"></path></marker></defs><defs><marker orient="auto" markerHeight="36" markerWidth="57" refY="18" refX="18" id="ZERO_OR_MORE_START"><circle r="6" cy="18" cx="48" fill="white" stroke="gray"></circle><path d="M0,18 Q18,0 36,18 Q18,36 0,18" fill="none" stroke="gray"></path></marker></defs><defs><marker orient="auto" markerHeight="36" markerWidth="57" refY="18" refX="39" id="ZERO_OR_MORE_END"><circle r="6" cy="18" cx="9" fill="white" stroke="gray"></circle><path d="M21,18 Q39,0 57,18 Q39,36 21,18" fill="none" stroke="gray"></path></marker></defs><path style="stroke: gray; fill: none;" marker-start="url(#ONLY_ONE_START)" marker-end="url(#ZERO_OR_MORE_END)" d="M141.485,170L141.485,178.333C141.485,186.667,141.485,203.333,141.485,220C141.485,236.667,141.485,253.333,141.485,261.667L141.485,270" class="er relationshipLine"></path><path style="stroke: gray; fill: none;" marker-start="url(#ONLY_ONE_START)" marker-end="url(#ZERO_OR_MORE_END)" d="M141.485,441L141.485,449.333C141.485,457.667,141.485,474.333,141.485,491C141.485,507.667,141.485,524.333,141.485,532.667L141.485,541" class="er relationshipLine"></path><g transform="translate(61.42008972167969,20 )" id="entity-organizations-258d3fad-6db4-59dd-b3e6-44cc4246c92e"><rect height="150" width="160.12901306152344" y="0" x="0" class="er entityBox"></rect><text style="dominant-baseline: middle; text-anchor: middle; font-size: 12px;" transform="translate(80.06450653076172,12)" y="0" x="0" id="text-entity-organizations-258d3fad-6db4-59dd-b3e6-44cc4246c92e" class="er entityLabel">organizations</text><rect height="21" width="45.61488342285156" y="24" x="0" class="er attributeBoxOdd"></rect><text style="dominant-baseline: middle; font-size: 10.2px;" transform="translate(5,34.5)" y="0" x="0" id="text-entity-organizations-258d3fad-6db4-59dd-b3e6-44cc4246c92e-attr-1-type" class="er entityLabel">bigint</text><rect height="21" width="89.7108154296875" y="24" x="45.61488342285156" class="er attributeBoxOdd"></rect><text style="dominant-baseline: middle; font-size: 10.2px;" transform="translate(50.61488342285156,34.5)" y="0" x="0" id="text-entity-organizations-258d3fad-6db4-59dd-b3e6-44cc4246c92e-attr-1-name" class="er entityLabel">id</text><rect height="21" width="24.803314208984375" y="24" x="135.32569885253906" class="er attributeBoxOdd"></rect><text style="dominant-baseline: middle; font-size: 10.2px;" transform="translate(140.32569885253906,34.5)" y="0" x="0" id="text-entity-organizations-258d3fad-6db4-59dd-b3e6-44cc4246c92e-attr-1-key" class="er entityLabel">PK</text><rect height="21" width="45.61488342285156" y="45" x="0" class="er attributeBoxEven"></rect><text style="dominant-baseline: middle; font-size: 10.2px;" transform="translate(5,55.5)" y="0" x="0" id="text-entity-organizations-258d3fad-6db4-59dd-b3e6-44cc4246c92e-attr-2-type" class="er entityLabel">varchar</text><rect height="21" width="89.7108154296875" y="45" x="45.61488342285156" class="er attributeBoxEven"></rect><text style="dominant-baseline: middle; font-size: 10.2px;" transform="translate(50.61488342285156,55.5)" y="0" x="0" id="text-entity-organizations-258d3fad-6db4-59dd-b3e6-44cc4246c92e-attr-2-name" class="er entityLabel">name</text><rect height="21" width="24.803314208984375" y="45" x="135.32569885253906" class="er attributeBoxEven"></rect><text style="dominant-baseline: middle; font-size: 10.2px;" transform="translate(140.32569885253906,55.5)" y="0" x="0" id="text-entity-organizations-258d3fad-6db4-59dd-b3e6-44cc4246c92e-attr-2-key" class="er entityLabel"></text><rect height="21" width="45.61488342285156" y="66" x="0" class="er attributeBoxOdd"></rect><text style="dominant-baseline: middle; font-size: 10.2px;" transform="translate(5,76.5)" y="0" x="0" id="text-entity-organizations-258d3fad-6db4-59dd-b3e6-44cc4246c92e-attr-3-type" class="er entityLabel">varchar</text><rect height="21" width="89.7108154296875" y="66" x="45.61488342285156" class="er attributeBoxOdd"></rect><text style="dominant-baseline: middle; font-size: 10.2px;" transform="translate(50.61488342285156,76.5)" y="0" x="0" id="text-entity-organizations-258d3fad-6db4-59dd-b3e6-44cc4246c92e-attr-3-name" class="er entityLabel">subscription_plan</text><rect height="21" width="24.803314208984375" y="66" x="135.32569885253906" class="er attributeBoxOdd"></rect><text style="dominant-baseline: middle; font-size: 10.2px;" transform="translate(140.32569885253906,76.5)" y="0" x="0" id="text-entity-organizations-258d3fad-6db4-59dd-b3e6-44cc4246c92e-attr-3-key" class="er entityLabel"></text><rect height="21" width="45.61488342285156" y="87" x="0" class="er attributeBoxEven"></rect><text style="dominant-baseline: middle; font-size: 10.2px;" transform="translate(5,97.5)" y="0" x="0" id="text-entity-organizations-258d3fad-6db4-59dd-b3e6-44cc4246c92e-attr-4-type" class="er entityLabel">int</text><rect height="21" width="89.7108154296875" y="87" x="45.61488342285156" class="er attributeBoxEven"></rect><text style="dominant-baseline: middle; font-size: 10.2px;" transform="translate(50.61488342285156,97.5)" y="0" x="0" id="text-entity-organizations-258d3fad-6db4-59dd-b3e6-44cc4246c92e-attr-4-name" class="er entityLabel">property_count</text><rect height="21" width="24.803314208984375" y="87" x="135.32569885253906" class="er attributeBoxEven"></rect><text style="dominant-baseline: middle; font-size: 10.2px;" transform="translate(140.32569885253906,97.5)" y="0" x="0" id="text-entity-organizations-258d3fad-6db4-59dd-b3e6-44cc4246c92e-attr-4-key" class="er entityLabel"></text><rect height="21" width="45.61488342285156" y="108" x="0" class="er attributeBoxOdd"></rect><text style="dominant-baseline: middle; font-size: 10.2px;" transform="translate(5,118.5)" y="0" x="0" id="text-entity-organizations-258d3fad-6db4-59dd-b3e6-44cc4246c92e-attr-5-type" class="er entityLabel">int</text><rect height="21" width="89.7108154296875" y="108" x="45.61488342285156" class="er attributeBoxOdd"></rect><text style="dominant-baseline: middle; font-size: 10.2px;" transform="translate(50.61488342285156,118.5)" y="0" x="0" id="text-entity-organizations-258d3fad-6db4-59dd-b3e6-44cc4246c92e-attr-5-name" class="er entityLabel">room_count</text><rect height="21" width="24.803314208984375" y="108" x="135.32569885253906" class="er attributeBoxOdd"></rect><text style="dominant-baseline: middle; font-size: 10.2px;" transform="translate(140.32569885253906,118.5)" y="0" x="0" id="text-entity-organizations-258d3fad-6db4-59dd-b3e6-44cc4246c92e-attr-5-key" class="er entityLabel"></text><rect height="21" width="45.61488342285156" y="129" x="0" class="er attributeBoxEven"></rect><text style="dominant-baseline: middle; font-size: 10.2px;" transform="translate(5,139.5)" y="0" x="0" id="text-entity-organizations-258d3fad-6db4-59dd-b3e6-44cc4246c92e-attr-6-type" class="er entityLabel">date</text><rect height="21" width="89.7108154296875" y="129" x="45.61488342285156" class="er attributeBoxEven"></rect><text style="dominant-baseline: middle; font-size: 10.2px;" transform="translate(50.61488342285156,139.5)" y="0" x="0" id="text-entity-organizations-258d3fad-6db4-59dd-b3e6-44cc4246c92e-attr-6-name" class="er entityLabel">subscribed_on</text><rect height="21" width="24.803314208984375" y="129" x="135.32569885253906" class="er attributeBoxEven"></rect><text style="dominant-baseline: middle; font-size: 10.2px;" transform="translate(140.32569885253906,139.5)" y="0" x="0" id="text-entity-organizations-258d3fad-6db4-59dd-b3e6-44cc4246c92e-attr-6-key" class="er entityLabel"></text></g><g transform="translate(63.19117736816406,270 )" id="entity-users-33ae1e26-be31-5c1d-bf65-e859e9d0308e"><rect height="171" width="156.5868377685547" y="0" x="0" class="er entityBox"></rect><text style="dominant-baseline: middle; text-anchor: middle; font-size: 12px;" transform="translate(78.29341888427734,12)" y="0" x="0" id="text-entity-users-33ae1e26-be31-5c1d-bf65-e859e9d0308e" class="er entityLabel">users</text><rect height="21" width="49.44877624511719" y="24" x="0" class="er attributeBoxOdd"></rect><text style="dominant-baseline: middle; font-size: 10.2px;" transform="translate(5,34.5)" y="0" x="0" id="text-entity-users-33ae1e26-be31-5c1d-bf65-e859e9d0308e-attr-1-type" class="er entityLabel">bigint</text><rect height="21" width="81.77195739746094" y="24" x="49.44877624511719" class="er attributeBoxOdd"></rect><text style="dominant-baseline: middle; font-size: 10.2px;" transform="translate(54.44877624511719,34.5)" y="0" x="0" id="text-entity-users-33ae1e26-be31-5c1d-bf65-e859e9d0308e-attr-1-name" class="er entityLabel">id</text><rect height="21" width="25.366104125976562" y="24" x="131.22073364257812" class="er attributeBoxOdd"></rect><text style="dominant-baseline: middle; font-size: 10.2px;" transform="translate(136.22073364257812,34.5)" y="0" x="0" id="text-entity-users-33ae1e26-be31-5c1d-bf65-e859e9d0308e-attr-1-key" class="er entityLabel">PK</text><rect height="21" width="49.44877624511719" y="45" x="0" class="er attributeBoxEven"></rect><text style="dominant-baseline: middle; font-size: 10.2px;" transform="translate(5,55.5)" y="0" x="0" id="text-entity-users-33ae1e26-be31-5c1d-bf65-e859e9d0308e-attr-2-type" class="er entityLabel">bigint</text><rect height="21" width="81.77195739746094" y="45" x="49.44877624511719" class="er attributeBoxEven"></rect><text style="dominant-baseline: middle; font-size: 10.2px;" transform="translate(54.44877624511719,55.5)" y="0" x="0" id="text-entity-users-33ae1e26-be31-5c1d-bf65-e859e9d0308e-attr-2-name" class="er entityLabel">organization_id</text><rect height="21" width="25.366104125976562" y="45" x="131.22073364257812" class="er attributeBoxEven"></rect><text style="dominant-baseline: middle; font-size: 10.2px;" transform="translate(136.22073364257812,55.5)" y="0" x="0" id="text-entity-users-33ae1e26-be31-5c1d-bf65-e859e9d0308e-attr-2-key" class="er entityLabel">FK</text><rect height="21" width="49.44877624511719" y="66" x="0" class="er attributeBoxOdd"></rect><text style="dominant-baseline: middle; font-size: 10.2px;" transform="translate(5,76.5)" y="0" x="0" id="text-entity-users-33ae1e26-be31-5c1d-bf65-e859e9d0308e-attr-3-type" class="er entityLabel">varchar</text><rect height="21" width="81.77195739746094" y="66" x="49.44877624511719" class="er attributeBoxOdd"></rect><text style="dominant-baseline: middle; font-size: 10.2px;" transform="translate(54.44877624511719,76.5)" y="0" x="0" id="text-entity-users-33ae1e26-be31-5c1d-bf65-e859e9d0308e-attr-3-name" class="er entityLabel">full_name</text><rect height="21" width="25.366104125976562" y="66" x="131.22073364257812" class="er attributeBoxOdd"></rect><text style="dominant-baseline: middle; font-size: 10.2px;" transform="translate(136.22073364257812,76.5)" y="0" x="0" id="text-entity-users-33ae1e26-be31-5c1d-bf65-e859e9d0308e-attr-3-key" class="er entityLabel"></text><rect height="21" width="49.44877624511719" y="87" x="0" class="er attributeBoxEven"></rect><text style="dominant-baseline: middle; font-size: 10.2px;" transform="translate(5,97.5)" y="0" x="0" id="text-entity-users-33ae1e26-be31-5c1d-bf65-e859e9d0308e-attr-4-type" class="er entityLabel">varchar</text><rect height="21" width="81.77195739746094" y="87" x="49.44877624511719" class="er attributeBoxEven"></rect><text style="dominant-baseline: middle; font-size: 10.2px;" transform="translate(54.44877624511719,97.5)" y="0" x="0" id="text-entity-users-33ae1e26-be31-5c1d-bf65-e859e9d0308e-attr-4-name" class="er entityLabel">email</text><rect height="21" width="25.366104125976562" y="87" x="131.22073364257812" class="er attributeBoxEven"></rect><text style="dominant-baseline: middle; font-size: 10.2px;" transform="translate(136.22073364257812,97.5)" y="0" x="0" id="text-entity-users-33ae1e26-be31-5c1d-bf65-e859e9d0308e-attr-4-key" class="er entityLabel">UK</text><rect height="21" width="49.44877624511719" y="108" x="0" class="er attributeBoxOdd"></rect><text style="dominant-baseline: middle; font-size: 10.2px;" transform="translate(5,118.5)" y="0" x="0" id="text-entity-users-33ae1e26-be31-5c1d-bf65-e859e9d0308e-attr-5-type" class="er entityLabel">varchar</text><rect height="21" width="81.77195739746094" y="108" x="49.44877624511719" class="er attributeBoxOdd"></rect><text style="dominant-baseline: middle; font-size: 10.2px;" transform="translate(54.44877624511719,118.5)" y="0" x="0" id="text-entity-users-33ae1e26-be31-5c1d-bf65-e859e9d0308e-attr-5-name" class="er entityLabel">password_hash</text><rect height="21" width="25.366104125976562" y="108" x="131.22073364257812" class="er attributeBoxOdd"></rect><text style="dominant-baseline: middle; font-size: 10.2px;" transform="translate(136.22073364257812,118.5)" y="0" x="0" id="text-entity-users-33ae1e26-be31-5c1d-bf65-e859e9d0308e-attr-5-key" class="er entityLabel"></text><rect height="21" width="49.44877624511719" y="129" x="0" class="er attributeBoxEven"></rect><text style="dominant-baseline: middle; font-size: 10.2px;" transform="translate(5,139.5)" y="0" x="0" id="text-entity-users-33ae1e26-be31-5c1d-bf65-e859e9d0308e-attr-6-type" class="er entityLabel">varchar</text><rect height="21" width="81.77195739746094" y="129" x="49.44877624511719" class="er attributeBoxEven"></rect><text style="dominant-baseline: middle; font-size: 10.2px;" transform="translate(54.44877624511719,139.5)" y="0" x="0" id="text-entity-users-33ae1e26-be31-5c1d-bf65-e859e9d0308e-attr-6-name" class="er entityLabel">role</text><rect height="21" width="25.366104125976562" y="129" x="131.22073364257812" class="er attributeBoxEven"></rect><text style="dominant-baseline: middle; font-size: 10.2px;" transform="translate(136.22073364257812,139.5)" y="0" x="0" id="text-entity-users-33ae1e26-be31-5c1d-bf65-e859e9d0308e-attr-6-key" class="er entityLabel"></text><rect height="21" width="49.44877624511719" y="150" x="0" class="er attributeBoxOdd"></rect><text style="dominant-baseline: middle; font-size: 10.2px;" transform="translate(5,160.5)" y="0" x="0" id="text-entity-users-33ae1e26-be31-5c1d-bf65-e859e9d0308e-attr-7-type" class="er entityLabel">datetime</text><rect height="21" width="81.77195739746094" y="150" x="49.44877624511719" class="er attributeBoxOdd"></rect><text style="dominant-baseline: middle; font-size: 10.2px;" transform="translate(54.44877624511719,160.5)" y="0" x="0" id="text-entity-users-33ae1e26-be31-5c1d-bf65-e859e9d0308e-attr-7-name" class="er entityLabel">created_at</text><rect height="21" width="25.366104125976562" y="150" x="131.22073364257812" class="er attributeBoxOdd"></rect><text style="dominant-baseline: middle; font-size: 10.2px;" transform="translate(136.22073364257812,160.5)" y="0" x="0" id="text-entity-users-33ae1e26-be31-5c1d-bf65-e859e9d0308e-attr-7-key" class="er entityLabel"></text></g><g transform="translate(20,541 )" id="entity-userproperties-4bb9c4f7-8736-5eee-a718-a40a9f6811e9"><rect height="66" width="242.9691925048828" y="0" x="0" class="er entityBox"></rect><text style="dominant-baseline: middle; text-anchor: middle; font-size: 12px;" transform="translate(121.4845962524414,12)" y="0" x="0" id="text-entity-userproperties-4bb9c4f7-8736-5eee-a718-a40a9f6811e9" class="er entityLabel">user_properties</text><rect height="21" width="34.55046081542969" y="24" x="0" class="er attributeBoxOdd"></rect><text style="dominant-baseline: middle; font-size: 10.2px;" transform="translate(5,34.5)" y="0" x="0" id="text-entity-userproperties-4bb9c4f7-8736-5eee-a718-a40a9f6811e9-attr-1-type" class="er entityLabel">bigint</text><rect height="21" width="61.35704040527344" y="24" x="34.55046081542969" class="er attributeBoxOdd"></rect><text style="dominant-baseline: middle; font-size: 10.2px;" transform="translate(39.55046081542969,34.5)" y="0" x="0" id="text-entity-userproperties-4bb9c4f7-8736-5eee-a718-a40a9f6811e9-attr-1-name" class="er entityLabel">user_id</text><rect height="21" width="40.67106628417969" y="24" x="95.90750122070312" class="er attributeBoxOdd"></rect><text style="dominant-baseline: middle; font-size: 10.2px;" transform="translate(100.90750122070312,34.5)" y="0" x="0" id="text-entity-userproperties-4bb9c4f7-8736-5eee-a718-a40a9f6811e9-attr-1-key" class="er entityLabel">PK,FK</text><rect height="21" width="106.390625" y="24" x="136.5785675048828" class="er attributeBoxOdd"></rect><text style="dominant-baseline: middle; font-size: 10.2px;" transform="translate(141.5785675048828,34.5)" y="0" x="0" id="text-entity-userproperties-4bb9c4f7-8736-5eee-a718-a40a9f6811e9-attr-1-comment" class="er entityLabel"></text><rect height="21" width="34.55046081542969" y="45" x="0" class="er attributeBoxEven"></rect><text style="dominant-baseline: middle; font-size: 10.2px;" transform="translate(5,55.5)" y="0" x="0" id="text-entity-userproperties-4bb9c4f7-8736-5eee-a718-a40a9f6811e9-attr-2-type" class="er entityLabel">bigint</text><rect height="21" width="61.35704040527344" y="45" x="34.55046081542969" class="er attributeBoxEven"></rect><text style="dominant-baseline: middle; font-size: 10.2px;" transform="translate(39.55046081542969,55.5)" y="0" x="0" id="text-entity-userproperties-4bb9c4f7-8736-5eee-a718-a40a9f6811e9-attr-2-name" class="er entityLabel">property_id</text><rect height="21" width="40.67106628417969" y="45" x="95.90750122070312" class="er attributeBoxEven"></rect><text style="dominant-baseline: middle; font-size: 10.2px;" transform="translate(100.90750122070312,55.5)" y="0" x="0" id="text-entity-userproperties-4bb9c4f7-8736-5eee-a718-a40a9f6811e9-attr-2-key" class="er entityLabel">PK</text><rect height="21" width="106.390625" y="45" x="136.5785675048828" class="er attributeBoxEven"></rect><text style="dominant-baseline: middle; font-size: 10.2px;" transform="translate(141.5785675048828,55.5)" y="0" x="0" id="text-entity-userproperties-4bb9c4f7-8736-5eee-a718-a40a9f6811e9-attr-2-comment" class="er entityLabel">references properties</text></g><rect height="14" width="44.6875" y="213" x="119.14125061035156" class="er relationshipLabelBox"></rect><text style="text-anchor: middle; dominant-baseline: middle; font-size: 12px;" y="220" x="141.48500061035156" id="rel4" class="er relationshipLabel">employs</text><rect height="14" width="45.3359375" y="484" x="118.81703186035156" class="er relationshipLabelBox"></rect><text style="text-anchor: middle; dominant-baseline: middle; font-size: 12px;" y="491" x="141.48500061035156" id="rel5" class="er relationshipLabel">works in</text></svg>